# xmcd
#
# Track frame offsets:
# 150
# 2817
# 16975
# 32787
# 57781
# 74629
# 82523
# 83851
# 98807
# 118359
# 126346
# 139785
# 144458
#
# Disc length: 2095 seconds
#
# Revision: 0
# Processed by: cddbd v1.4PL0 Copyright (c) Steve Scherf et al.
# Submitted via: Audion 3.0.2 (http://www.panic.com/audion/)
#
DISCID=ae082d0d
DTITLE=Puppyhertz - Animal Squad LP
DYEAR=1900
DGENRE=
TTITLE0=son
TTITLE1=cookies_too
TTITLE2=theme de frankenberry
TTITLE3=geto petal
TTITLE4=wiggles
TTITLE5=alicia beat
TTITLE6=tro
TTITLE7=glass ass
TTITLE8=horseshoes and hand grenades
TTITLE9=headless
TTITLE10=ohh......concrete
TTITLE11=moosic machine
TTITLE12=singers
EXTD=
EXTT0=
EXTT1=
EXTT2=
EXTT3=
EXTT4=
EXTT5=
EXTT6=
EXTT7=
EXTT8=
EXTT9=
EXTT10=
EXTT11=
EXTT12=
PLAYORDER=
